#!OML:ASF F:\VICON\USERDATA\INSTALL\rory3\rory3.ASF
:FULLY-SPECIFIED
:DEGREES
696
root 0.396641 17.7046 5.00685 -363.605 78.3938 2.38867
lowerback 21.83 0.784115 -1.22134
upperback 3.00844 1.51786 5.2291
thorax -9.09595 0.973371 6.02654
lowerneck -11.7208 -2.2778 -3.9478
upperneck 20.8981 -1.1259 -4.09458
head 8.45775 -1.13655 -0.816471
rclavicle -5.76476e-015 6.52014e-014
rhumerus -38.4915 -44.6663 -48.5643
rradius 35.9245
rwrist -15.4617
rhand -19.8809 -5.52751
rfingers 7.12502
rthumb 6.45475 -35.4092
lclavicle -5.76476e-015 6.52014e-014
lhumerus -47.4454 13.3393 77.3786
lradius 53.3036
lwrist 15.6383
lhand -12.9722 50.7725
lfingers 7.12502
lthumb 13.12 80.3398
rfemur -18.5966 -11.5241 18.5912
rtibia 55.2912
rfoot -23.033 -36.4342
rtoes 41.9923
lfemur -12.6729 -0.434987 -23.5841
ltibia 39.4762
lfoot -17.4906 6.10114
ltoes 13.954
697
root 0.400139 17.7012 4.98531 -359.136 79.2924 7.34084
lowerback 22.2795 0.694268 -2.01772
upperback 3.05269 1.18857 4.98996
thorax -9.2565 0.841839 6.3286
lowerneck -11.7088 -2.30343 -3.80281
upperneck 20.9284 -1.14521 -4.28404
head 8.4631 -1.15239 -0.906174
rclavicle -4.37326e-015 3.18055e-015
rhumerus -39.7736 -44.5183 -48.0759
rradius 37.9496
rwrist -17.7497
rhand -19.6176 -6.49587
rfingers 7.12502
rthumb 6.70898 -36.3696
lclavicle -4.37326e-015 3.18055e-015
lhumerus -47.9937 14.9453 76.0675
lradius 52.4072
lwrist 15.6868
lhand -13.6677 51.3383
lfingers 7.12502
lthumb 12.4495 80.9475
rfemur -18.3711 -11.2957 17.1884
rtibia 55.8856
rfoot -21.3788 -34.7774
rtoes 41.5214
lfemur -12.1942 -1.17808 -24.776
ltibia 39.3133
lfoot -17.5016 6.08205
ltoes 15.1638
698
root 0.425067 17.7179 4.97402 -369.015 79.7708 -2.56713
lowerback 22.1278 0.302475 -0.100575
upperback 3.15671 1.20697 5.47042
thorax -9.04087 0.800486 5.73537
lowerneck -11.8009 -2.34601 -3.83159
upperneck 21.0704 -1.16094 -4.36973
head 8.52865 -1.17272 -0.934764
rclavicle -1.51076e-014 1.11319e-014
rhumerus -40.6536 -43.6029 -48.1537
rradius 39.7688
rwrist -20.5919
rhand -20.2019 -6.41972
rfingers 7.12502
rthumb 6.14494 -36.3106
lclavicle -1.51076e-014 1.11319e-014
lhumerus -48.4223 16.4066 74.9496
lradius 51.4133
lwrist 15.9758
lhand -15.1995 52.1011
lfingers 7.12502
lthumb 10.9724 81.7944
rfemur -17.9906 -10.3886 18.9899
rtibia 55.848
rfoot -20.4968 -33.3009
rtoes 41.324
lfemur -12.1757 -1.35732 -22.8551
ltibia 39.6227
lfoot -17.63 5.73175
ltoes 15.1003
699
root 0.46509 17.7257 5.02118 -377.72 80.1861 -10.1142
lowerback 22.7388 0.0507174 0.370601
upperback 3.65806 1.1007 6.03154
thorax -8.80368 0.758805 6.1224
lowerneck -11.7989 -2.34322 -4.2306
upperneck 20.9191 -1.12704 -4.17334
head 8.48407 -1.16613 -0.797301
rclavicle -8.74653e-015 1.11319e-014
rhumerus -40.5491 -41.7326 -49.0373
rradius 41.1926
rwrist -23.6484
rhand -21.8494 -5.86629
rfingers 7.12502
rthumb 4.55419 -35.7973
lclavicle -8.74653e-015 1.11319e-014
lhumerus -48.8743 17.7483 73.9382
lradius 50.4563
lwrist 16.5488
lhand -16.1311 52.6273
lfingers 7.12502
lthumb 10.0737 82.3662
rfemur -16.0708 -9.58516 20.1002
rtibia 55.603
rfoot -20.1082 -31.3114
rtoes 39.7073
lfemur -10.8188 -1.40024 -21.3804
ltibia 40.0094
lfoot -17.8193 4.91981
ltoes 15.1111
700
root 0.491343 17.7247 5.05765 -391.587 79.9937 -22.9758
lowerback 23.513 -0.345755 1.8822
upperback 4.04675 1.11345 6.73131
thorax -8.77556 0.757651 6.033
lowerneck -11.8403 -2.3787 -4.38016
upperneck 20.9405 -1.17406 -4.0258
head 8.50161 -1.18627 -0.728931
rclavicle -3.45885e-014 -7.95139e-015
rhumerus -41.0289 -40.5501 -49.4845
rradius 42.8079
rwrist -25.4353
rhand -23.8073 -4.25681
rfingers 7.12502
rthumb 2.66344 -34.2199
lclavicle -3.45885e-014 -7.95139e-015
lhumerus -49.3239 18.39 72.9038
lradius 49.4975
lwrist 17.3319
lhand -16.0249 53.4541
lfingers 7.12502
lthumb 10.1761 83.188
rfemur -14.3608 -8.65815 22.4429
rtibia 55.4977
rfoot -19.3124 -29.4304
rtoes 36.4362
lfemur -9.55896 -1.31152 -18.8146
ltibia 40.1606
lfoot -18.3252 3.76448
ltoes 17.4589
701
root 0.480303 17.7204 5.04408 -395.971 79.6638 -27.6605
lowerback 23.5738 -0.47749 2.75389
upperback 3.90051 1.20046 6.90443
thorax -8.96983 0.782452 5.70072
lowerneck -11.8041 -2.35159 -4.20389
upperneck 20.9857 -1.15873 -4.08555
head 8.50723 -1.17113 -0.776426
rclavicle 5.76476e-015 -6.36111e-014
rhumerus -42.1873 -40.3909 -49.3592
rradius 44.723
rwrist -25.0877
rhand -24.7442 -3.59175
rfingers 7.12502
rthumb 1.7586 -33.5643
lclavicle 5.76476e-015 -6.36111e-014
lhumerus -49.7782 18.5289 71.9159
lradius 48.6366
lwrist 18.6389
lhand -15.9497 54.3419
lfingers 7.12502
lthumb 10.2487 84.0723
rfemur -14.7924 -6.92935 23.5142
rtibia 55.6554
rfoot -19.2139 -26.8348
rtoes 34.5997
lfemur -9.93571 -1.69097 -17.8866
ltibia 40.1468
lfoot -18.348 3.74505
ltoes 20.4109
702
root 0.463698 17.709 5.00376 -363.475 81.1964 3.35391
lowerback 22.0951 0.384557 -2.15619
upperback 3.25494 0.804527 5.35529
thorax -8.88994 0.668076 6.92849
lowerneck -11.7342 -2.25855 -4.12423
upperneck 20.9358 -1.08832 -3.9416
head 8.4762 -1.1164 -0.732239
rclavicle -2.76311e-014 1.59028e-014
rhumerus -43.6706 -40.3651 -49.0798
rradius 47.301
rwrist -24.4979
rhand -24.563 -4.22772
rfingers 7.12502
rthumb 1.93359 -34.1987
lclavicle -2.76311e-014 1.59028e-014
lhumerus -50.2391 18.8318 70.8695
lradius 47.7247
lwrist 19.5438
lhand -15.6056 55.704
lfingers 7.12502
lthumb 10.5806 85.4176
rfemur -17.73 -5.39641 17.4593
rtibia 56.6019
rfoot -19.631 -22.4537
rtoes 34.41
lfemur -11.7558 -2.02647 -23.9377
ltibia 39.6052
lfoot -17.3193 5.12998
ltoes 13.9827
